# xmcd
#
# Track frame offsets:
#	150
#	26590
#	47540
#	74885
#	92074
#	122526
#	146597
#	172494
#	193668
#
# Disc length: 2819 seconds
# Revision: 0
# Processed by: cddbd v1.5.2PL0 Copyright (c) Steve Scherf et al.
# Submitted via: dBpowerAMP V12.0
#
DISCID=870b0109
DTITLE=Kryoburn - Three Years Eclipsed
DYEAR=2010
DGENRE=Metal
TTITLE0=Broken Hero
TTITLE1=Burning the Doubt
TTITLE2=Event Horizon
TTITLE3=Slaughtered with Lies
TTITLE4=Introspective
TTITLE5=Season of Suicide
TTITLE6=Reinvention
TTITLE7=Mortal Instinct
TTITLE8=The Sickening
EXTD=
EXTT0=
EXTT1=
EXTT2=
EXTT3=
EXTT4=
EXTT5=
EXTT6=
EXTT7=
EXTT8=
PLAYORDER=
